<svg data-v-0dd9719b="" version="1.0" xmlns="http://www.w3.org/2000/svg" xmlns:xlink="http://www.w3.org/1999/xlink" width="100%" height="100%" viewBox="0 0 340.000000 250.000000" preserveAspectRatio="xMidYMid meet" color-interpolation-filters="sRGB" style="margin: auto;"> <rect data-v-0dd9719b="" x="0" y="0" width="100%" height="100%" fill="#ffffff" fill-opacity="1" class="background"></rect> <rect data-v-0dd9719b="" x="0" y="0" width="100%" height="100%" fill="url(#watermark)" fill-opacity="1" class="watermarklayer"></rect> <g data-v-0dd9719b="" fill="#391561" class="icon-text-wrapper icon-svg-group iconsvg" transform="translate(48.82500457763672,98.1346492767334)"><g class="iconsvg-imagesvg" transform="translate(0,0)"><g><rect fill="#391561" fill-opacity="0" stroke-width="2" x="0" y="0" width="60" height="53.730701722964504" class="image-rect"></rect> <svg filter="url(#colors915755603)" x="0" y="0" width="60" height="53.730701722964504" filtersec="colorsf8016334407" class="image-svg-svg primary" style="overflow: visible;"><svg xmlns="http://www.w3.org/2000/svg" data-name="Layer 1" viewBox="10.623434066772461 15.783534049987793 98.75565338134766 88.43647766113281" x="0px" y="0px"><title>maps6</title><path d="M105.22,69.55a1,1,0,0,0-.68-.2l-7,.58L96.92,67a1,1,0,0,0-1.08-.77l-4.45.47-1.6-2.25,3.53-4.8a1,1,0,0,0-.42-1.52L87.75,56,86.17,54.3,89,52.68a1,1,0,0,0,.45-.56l2-6.32A1,1,0,0,0,91,44.64l-3.85-2.36a1,1,0,0,0-.77-.11l-4.11,1-.93-5.09,1.21-2.89L95,36.52a1,1,0,0,0,.85-.32L98.73,33a1,1,0,0,0,0-1.3l-2.9-3.53a1,1,0,0,0-1-.35l-4.05.92-3-.76-1.17-6a1,1,0,0,0-1-.81H80.52a1,1,0,0,0-1,.94l-.18,3.19-1.83.64a1,1,0,0,0-.65.75l-.69,3.63-6.5,5.78a1,1,0,0,0-.3,1l1.79,6.67-2.75,3.18-2.28-.17a1,1,0,0,0-.6.14L61.64,49.3l-5.43-4.58L47.4,30.92a1,1,0,0,0-.78-.46l-4.32-.29-1.54-1.62.35-2.3a1,1,0,0,0-.25-.83l-3.64-4a1,1,0,0,0-1.12-.25l-2.57,1.08a1,1,0,0,0-.54.52L32.06,25l-1.2-.75L30,18.55a1,1,0,0,0-.46-.69L26.4,15.93a1,1,0,0,0-1.48.57L23,23a1,1,0,0,0,.15.88l1.38,1.86-1.49.6L21.45,24a1,1,0,0,0-.82-.44h0a1,1,0,0,0-.83.45l-2,3.11a1,1,0,0,0-.12.82l1.71,6.11a1,1,0,0,0,1.18.7l2.79-.6.38,10.37L22.4,51.31l-4.56,2.87a1,1,0,0,0-.39.48l-.75,1.86-4.35,2.93a1,1,0,0,0-.42.64l-1.29,6.64a1,1,0,0,0,.08.61l1.06,2.31-1,1.69a1,1,0,0,0-.09.84L11.33,74a1,1,0,0,0,.62.61,1,1,0,0,0,.86-.11l5.34-3.45,5.46-1.58.91,1.45-2,1.38a1,1,0,0,0-.28,1.35l1.84,3L23.5,80a1,1,0,0,0,.72,1.13l7.45,2-3.6,8.16a1,1,0,0,0,0,.85,1,1,0,0,0,.67.53l7.69,1.71,2.57,5a1,1,0,0,0,.64.51l4.18,1.08a1,1,0,0,0,.81-.14l5-3.37,2.67,4.54a1,1,0,0,0,.51.43L57,104.16a1.13,1.13,0,0,0,.36.06.94.94,0,0,0,.48-.13,1,1,0,0,0,.5-.69l1.18-6.29a1,1,0,0,0-.24-.85l-3-3.36.44-1.74,4.91-.1a1,1,0,0,0,.7-.3L66,87l4.69,2.62a1,1,0,0,0,1,0l4-2.6,1.33.55a1,1,0,0,0,.8,0l1.86-.86,1.65,2.07a1,1,0,0,0,.74.38l2.57.1a1,1,0,0,0,1-.69L86.47,86l5.28.65a1,1,0,0,0,1.09-.73l.92-3.37,7.91-2.15a1,1,0,0,0,.45-.25l2.26-2.27,2.51-.57a1,1,0,0,0,.65-.51l1.72-3.21a1,1,0,0,0-.29-1.28Zm.77,5.93-2.34.54a.93.93,0,0,0-.48.27l-2.28,2.27-8.2,2.22a1,1,0,0,0-.71.71l-.84,3.08-5.25-.64a1,1,0,0,0-1.07.69L84,87.21l-1.36,0-1.86-2.33a1,1,0,0,0-1.19-.28l-2.18,1L76,85a1,1,0,0,0-.93.09l-3.89,2.56-4.82-2.7a1,1,0,0,0-1.21.17l-3.89,4-5.27.1a1,1,0,0,0-1,.76l-.75,3a1,1,0,0,0,.22.91l3,3.38-.87,4.64-2.73-1-3-5.16a1,1,0,0,0-.64-.47,1,1,0,0,0-.78.14L43.9,99.06l-3.3-.85L38,93.15a1,1,0,0,0-.68-.53l-7-1.55L34,83a1,1,0,0,0-.65-1.37l-7.7-2.12.49-2.85a1,1,0,0,0-.13-.69l-1.54-2.52,2-1.39a1,1,0,0,0,.28-1.35l-1.82-2.9a1,1,0,0,0-1.12-.43l-6.32,1.83a.66.66,0,0,0-.27.12l-4.4,2.84L12.72,72l1-1.74a1,1,0,0,0,.05-.93L12.67,66.8l1.14-5.92L18.08,58a1.05,1.05,0,0,0,.37-.46l.73-1.84,4.66-2.93a1.06,1.06,0,0,0,.45-.66l1.39-7.29a1.5,1.5,0,0,0,0-.22l-.43-11.68a1,1,0,0,0-.39-.75,1,1,0,0,0-.82-.19l-3,.66-1.33-4.76,1-1.48,1.19,1.76a1,1,0,0,0,1.21.37l3.43-1.4a1,1,0,0,0,.42-1.52l-1.84-2.49,1.41-4.8,1.61,1L29,25a1,1,0,0,0,.46.69L32,27.27a1,1,0,0,0,1.45-.45L34.67,24l1.55-.65,2.84,3.09-.35,2.31a1,1,0,0,0,.26.85l2.15,2.25a.94.94,0,0,0,.65.3l4.21.29,8.62,13.5a.9.9,0,0,0,.2.23l6.11,5.14a1,1,0,0,0,1.17.09l4.22-2.61,2.46.19a1,1,0,0,0,.84-.35l3.42-4a1,1,0,0,0,.21-.92l-1.76-6.58,6.28-5.59a.94.94,0,0,0,.32-.56l.64-3.4,1.92-.66a1,1,0,0,0,.67-.89l.16-2.91h3.38L86,29a1,1,0,0,0,.74.78l3.86,1a1,1,0,0,0,.46,0l3.69-.83,2,2.39-2,2.2L82,33.14a1,1,0,0,0-1,.61l-1.61,3.86a1.07,1.07,0,0,0-.06.56L80.5,44.6a1,1,0,0,0,.44.66,1,1,0,0,0,.78.13l4.74-1.18,2.83,1.73-1.68,5.2L84.09,53.2a1,1,0,0,0-.49.72,1,1,0,0,0,.25.82l2.58,2.79a.79.79,0,0,0,.35.24L91,59.51l-3.21,4.36a1,1,0,0,0,0,1.17l2.36,3.32a1,1,0,0,0,.92.41l4.15-.44.66,2.89a1,1,0,0,0,1.06.77l7.44-.61,2.76,2.05Z"></path><path d="M46.18,36.72l-.94-1.49a1,1,0,0,0-1.69,1.08l1,1.48a1,1,0,0,0,.84.46,1.08,1.08,0,0,0,.54-.15A1,1,0,0,0,46.18,36.72Z"></path><path d="M53.21,47.72l-5.32-8.33a1,1,0,1,0-1.69,1.07l5.4,8.46a.9.9,0,0,0,.2.23l6.11,5.14a1,1,0,0,0,.64.24,1,1,0,0,0,.77-.36,1,1,0,0,0-.12-1.41Z"></path></svg></svg> <defs><filter id="colors915755603"><feColorMatrix type="matrix" values="0 0 0 0 0.6953125  0 0 0 0 0.12890625  0 0 0 0 0.3984375  0 0 0 1 0" class="icon-fecolormatrix"></feColorMatrix></filter> <filter id="colorsf8016334407"><feColorMatrix type="matrix" values="0 0 0 0 0.99609375  0 0 0 0 0.99609375  0 0 0 0 0.99609375  0 0 0 1 0" class="icon-fecolormatrix"></feColorMatrix></filter> <filter id="colorsb3527669310"><feColorMatrix type="matrix" values="0 0 0 0 0  0 0 0 0 0  0 0 0 0 0  0 0 0 1 0" class="icon-fecolormatrix"></feColorMatrix></filter></defs></g></g> <g transform="translate(67,1.51409912109375)"><g data-gra="path-name" fill-rule="" class="tp-name iconsvg-namesvg" transform="translate(0,0)"><g transform="scale(1)"><g><path d="M4.58 5.14L9.41-12.45 1.91-12.45 1.91-16.16 43.09-16.16 41.74-12.45 16.05-12.45 12.22 1.43 32.63 1.43 30.04-7.91 36.64-7.91 40.27 5.14 4.58 5.14ZM5.47-23.96L5.47-27.68 39.52-27.68 38.32-23.96 5.47-23.96ZM47.48-22.2L47.48-25.91 64.5-25.91 64.5-28.35 70.5-28.35 70.5-25.91 87.49-25.91 86.14-22.2 70.5-22.2 70.5-19.69 85.76-19.69 85.76 0.94 84.45 5.85 78.41 5.85 79.76 0.94 79.76-16.01 55.24-16.01 55.24 5.85 49.24 5.85 49.24-19.69 64.5-19.69 64.5-22.2 47.48-22.2ZM56.44 0.22L56.44-3.49 64.46-3.49 64.46-6.64 56.74-6.64 56.74-10.35 59.81-10.35 58.39-14.25 64.2-14.25 65.66-10.35 69.34-10.35 70.8-14.25 76.61-14.25 75.19-10.35 78.3-10.35 76.95-6.64 70.54-6.64 70.54-3.49 78.64-3.49 77.29 0.22 70.54 0.22 70.54 5.33 64.46 5.33 64.46 0.22 56.44 0.22ZM92.55-1.69L98.44-13.42 91.91-13.42 99.19-28.35 105.26-28.35 99.79-17.14 106.35-17.14 100.5-5.4 106.35-5.4 105-1.69 92.55-1.69ZM92.17 5.85L92.17 2.14 105.94 1.05 105.94 4.76 92.17 5.85ZM106.99-12.04L110.92-20.7 110.92-23.96 107.03-23.96 107.03-27.68 132.45-27.68 132.45-14.89Q132.45-13.72 131.64-12.9 130.84-12.07 129.64-12.04L129.64-12.04 119.81-12.04 118.46-15.75 126.6-15.75 126.6-23.96 116.74-23.96 116.74-19.72 113.25-12.04 106.99-12.04ZM108.04 5.85L108.04-9.67 131.63-9.67 131.63 3Q131.63 4.16 130.82 4.99 130.01 5.81 128.81 5.85L128.81 5.85 108.04 5.85ZM113.96 2.14L125.66 2.14 125.66-5.85 113.96-5.85 113.96 2.14ZM140.06-9.71L144.04-21.79 137.59-21.79 137.59-25.46 145.24-25.46 146.18-28.35 152.25-28.35 151.31-25.46 177.26-25.46 175.91-21.79 150.11-21.79 147.38-13.42 154.31-13.42 154.31-19.39 160.5-19.39 160.5-13.42 175.57-13.42 174.22-9.71 160.5-9.71 160.5 0.82 158.4 5.85 151.99 5.85 154.31 0.22 154.31-9.71 140.06-9.71ZM138.49 5.85L142.72-6.38 148.99-6.38 144.71 5.85 138.49 5.85ZM166.09-6.38L172.35-6.38 176.51 5.85 170.25 5.85 166.09-6.38Z" transform="translate(-1.9100000858306885, 28.350000381469727)"></path></g> <!----> <!----> <!----> <!----> <!----> <!----> <!----></g></g> <g data-gra="path-slogan" fill-rule="" class="tp-slogan iconsvg-slogansvg" fill="#b22166" transform="translate(24.95417022705078,40.20000076293945)"><!----> <!----> <g transform="scale(1, 1)"><g transform="scale(1)"><path d="M7.17-6.09L7.17-6.09L6.09-6.09Q6-7.73 3.94-7.83L3.94-7.83Q2.02-7.78 2.02-6.33L2.02-6.33Q2.02-5.39 3.05-5.25L3.05-5.25L5.48-4.69Q7.41-4.22 7.41-2.34L7.41-2.34Q7.36 0.05 4.03 0.14L4.03 0.14Q2.20 0.14 1.45-0.61L1.45-0.61Q0.52-1.31 0.56-2.77L0.56-2.77L1.69-2.77Q1.73-0.80 4.03-0.75L4.03-0.75Q6.28-0.80 6.33-2.20L6.33-2.20Q6.52-3.38 4.45-3.75L4.45-3.75L2.67-4.13Q0.84-4.64 0.84-6.19L0.84-6.19Q0.98-8.72 3.84-8.81L3.84-8.81Q7.08-8.81 7.17-6.09ZM10.03-5.06L14.53-5.06L14.53-8.58L15.70-8.58L15.70 0L14.53 0L14.53-3.98L10.03-3.98L10.03 0L8.86 0L8.86-8.58L10.03-8.58L10.03-5.06ZM23.16 0L22.31-2.48L18.84-2.48L17.95 0L16.78 0L20.02-8.58L21.33-8.58L24.42 0L23.16 0ZM20.58-7.31L19.22-3.52L21.89-3.52L20.63-7.31L20.58-7.31ZM32.25-4.27L32.25-4.27Q32.06-7.64 29.25-7.83L29.25-7.83Q26.39-7.69 26.25-4.27L26.25-4.27Q26.39-0.94 29.25-0.80L29.25-0.80Q32.06-0.98 32.25-4.27ZM33.42-4.27L33.42-4.27Q33.14 0 29.25 0.14L29.25 0.14Q25.31 0 25.03-4.27L25.03-4.27Q25.27-8.72 29.25-8.81L29.25-8.81Q33.14-8.67 33.42-4.27ZM38.30 0L34.83 0L34.83-8.58L38.34-8.58Q41.81-8.39 41.95-4.41L41.95-4.41Q41.77-0.09 38.30 0L38.30 0ZM38.16-7.64L36-7.64L36-0.98L38.25-0.98Q40.69-1.13 40.78-4.31L40.78-4.31Q40.73-7.55 38.16-7.64L38.16-7.64ZM50.20-4.27L50.20-4.27Q50.02-7.64 47.20-7.83L47.20-7.83Q44.34-7.69 44.20-4.27L44.20-4.27Q44.34-0.94 47.20-0.80L47.20-0.80Q50.02-0.98 50.20-4.27ZM51.38-4.27L51.38-4.27Q51.09 0 47.20 0.14L47.20 0.14Q43.27 0 42.98-4.27L42.98-4.27Q43.22-8.72 47.20-8.81L47.20-8.81Q51.09-8.67 51.38-4.27ZM54.14-8.58L58.45-1.64L58.45-8.58L59.58-8.58L59.58 0L58.27 0L53.91-6.94L53.86-6.94L53.86 0L52.73 0L52.73-8.58L54.14-8.58ZM67.78-3.61L65.16-3.61L65.16-4.59L68.91-4.59L68.91 0L68.16 0L67.88-1.08Q66.89 0.09 65.06 0.14L65.06 0.14Q63.33 0.14 62.39-0.75L62.39-0.75Q60.98-2.06 61.03-4.36L61.03-4.36Q61.36-8.63 65.11-8.81L65.11-8.81Q68.30-8.63 68.77-6L68.77-6L67.64-6Q67.17-7.78 65.06-7.83L65.06-7.83Q62.39-7.64 62.25-4.31L62.25-4.31Q62.25-0.75 65.11-0.75L65.11-0.75Q66.14-0.75 66.89-1.31L66.89-1.31Q67.83-2.06 67.78-3.61L67.78-3.61ZM71.48 0L70.83 0L70.83-1.27L72.09-1.27L72.09-0.09Q72.09 1.45 70.83 1.69L70.83 1.69L70.83 1.08Q71.48 0.98 71.48 0L71.48 0ZM84.28-8.58L81.05-3.47L81.05 0L79.88 0L79.88-3.47L76.64-8.58L78-8.58L80.44-4.45L82.92-8.58L84.28-8.58ZM90.98-3.19L90.98-8.58L92.16-8.58L92.16-3.05Q92.02 0.05 88.64 0.14L88.64 0.14Q85.50 0.05 85.36-2.86L85.36-2.86L85.36-8.58L86.53-8.58L86.53-3.19Q86.58-0.84 88.69-0.80L88.69-0.80Q90.98-0.84 90.98-3.19L90.98-3.19ZM95.34-8.58L99.66-1.64L99.66-8.58L100.78-8.58L100.78 0L99.47 0L95.11-6.94L95.06-6.94L95.06 0L93.94 0L93.94-8.58L95.34-8.58ZM103.97-8.58L108.28-1.64L108.28-8.58L109.41-8.58L109.41 0L108.09 0L103.73-6.94L103.69-6.94L103.69 0L102.56 0L102.56-8.58L103.97-8.58ZM116.86 0L116.02-2.48L112.55-2.48L111.66 0L110.48 0L113.72-8.58L115.03-8.58L118.13 0L116.86 0ZM114.28-7.31L112.92-3.52L115.59-3.52L114.33-7.31L114.28-7.31ZM120.56-8.58L124.88-1.64L124.88-8.58L126-8.58L126 0L124.69 0L120.33-6.94L120.28-6.94L120.28 0L119.16 0L119.16-8.58L120.56-8.58Z" transform="translate(-0.5602678571428572, 8.8125)"></path></g></g></g></g></g><defs v-gra="od"></defs></svg>